<?xml version="1.0" encoding="UTF-8"?>
<svg version="1.1" xmlns="http://www.w3.org/2000/svg" width="121" height="143">
<path d="M0 0 C2.48168945 1.17651367 2.48168945 1.17651367 5.11328125 2.66796875 C6.10312012 3.22508545 7.09295898 3.78220215 8.11279297 4.35620117 C9.16869629 4.96052979 10.22459961 5.5648584 11.3125 6.1875 C12.40449707 6.80665283 13.49649414 7.42580566 14.62158203 8.0637207 C17.50227278 9.70148116 20.37868561 11.34618576 23.25213623 12.99658203 C24.99012717 13.99433218 26.72967899 14.98936178 28.46923828 15.984375 C31.7753815 17.87819899 35.07637634 19.78061334 38.375 21.6875 C39.39634033 22.27490967 40.41768066 22.86231934 41.4699707 23.4675293 C42.41573975 24.01836182 43.36150879 24.56919434 44.3359375 25.13671875 C45.16657715 25.61842529 45.9972168 26.10013184 46.85302734 26.59643555 C48.85453295 27.9049022 50.39133378 29.24151658 52 31 C39.12805916 39.01666661 26.21097761 46.94789228 13.17529297 54.69580078 C11.17926542 55.89252122 9.1986917 57.11048836 7.22265625 58.33984375 C5.62744141 59.31630859 5.62744141 59.31630859 4 60.3125 C3.113125 60.86550781 2.22625 61.41851562 1.3125 61.98828125 C-1 63 -1 63 -2.94921875 62.83984375 C-13.51579455 58.51257938 -23.38805291 52.57410762 -33.28466797 46.92993164 C-41.76304808 42.10284004 -50.342857 37.49706623 -59 33 C-59 32.34 -59 31.68 -59 31 C-56.73461914 29.45043945 -56.73461914 29.45043945 -53.53515625 27.61328125 C-52.95873886 27.27897598 -52.38232147 26.94467072 -51.78843689 26.60023499 C-49.88376353 25.49727739 -47.97335989 24.40469918 -46.0625 23.3125 C-43.40568561 21.78317184 -40.75142899 20.24944266 -38.09765625 18.71484375 C-37.42264069 18.3253656 -36.74762512 17.93588745 -36.05215454 17.53460693 C-31.55078997 14.92800545 -27.1035127 12.24604554 -22.68359375 9.50390625 C-21.54357999 8.80095795 -20.40352559 8.09807556 -19.26342773 7.39526367 C-17.12180192 6.06946479 -14.98691043 4.7327124 -12.85961914 3.3840332 C-11.89531982 2.79066162 -10.93102051 2.19729004 -9.9375 1.5859375 C-8.68259766 0.79775635 -8.68259766 0.79775635 -7.40234375 -0.00634766 C-4.38806034 -1.25310919 -3.07399478 -1.01410445 0 0 Z " fill="#4BC64D" transform="translate(63,6)"/>
<path d="M0 0 C9.65497695 4.75465417 19.19101571 9.63898351 28.5625 14.9375 C29.55701172 15.49373047 30.55152344 16.04996094 31.57617188 16.62304688 C33.63119977 17.77875354 35.6659883 18.97112191 37.67993164 20.19702148 C40.27044574 21.60381217 42.32772021 22.47039662 45.08374023 23.33618164 C49.6806265 25.00370797 53.3568704 26.73456812 56 31 C58.40327394 40.45822258 57.47859433 50.68817203 57.02996826 60.35882568 C56.87558386 64.03806586 56.80782399 67.71883494 56.73242188 71.40039062 C56.5722676 78.60447235 56.31687288 85.80092591 56 93 C47.75636905 88.30860007 39.53497491 83.58600351 31.375 78.75 C30.55644531 78.26660156 29.73789062 77.78320312 28.89453125 77.28515625 C27.07225899 76.20700113 25.26922226 75.09593585 23.48242188 73.95996094 C20.59899532 72.33712384 17.943208 71.1717814 14.87695312 69.98535156 C9.12042671 67.52961884 3.88713094 65.05171367 0 60 C-3.0655728 50.90636083 -1.98362822 40.81098438 -1.37329102 31.36230469 C-1.16680616 27.82466717 -1.07697668 24.28414129 -0.9765625 20.7421875 C-0.76349867 13.82106268 -0.42335669 6.91137003 0 0 Z " fill="#E6E8F2" transform="translate(2,44)"/>
<path d="M0 0 C0.51330264 7.59462525 0.9022732 15.18743757 1.13986778 22.79552746 C1.2540569 26.33147849 1.40810062 29.85547038 1.65966797 33.38452148 C3.22986694 56.01041901 3.22986694 56.01041901 -2.00375366 62.47506714 C-7.18728722 66.75925404 -13.04022888 69.38647037 -19.24938965 71.86276245 C-22.95380938 73.39435169 -26.26391721 75.37083158 -29.66015625 77.48046875 C-31.79363229 78.71724799 -33.92771839 79.95297564 -36.0625 81.1875 C-37.16142578 81.82751953 -38.26035156 82.46753906 -39.39257812 83.12695312 C-40.9790918 84.04444336 -40.9790918 84.04444336 -42.59765625 84.98046875 C-43.52070557 85.51567139 -44.44375488 86.05087402 -45.39477539 86.60229492 C-47.88363666 87.93757097 -50.37230412 88.9739104 -53 90 C-53.3962817 82.76020762 -53.69705331 75.52279212 -53.88080692 68.27430248 C-53.96908541 64.90656067 -54.08834339 61.5462944 -54.2824707 58.18286133 C-55.44060739 36.5469444 -55.44060739 36.5469444 -51.47595215 30.78509521 C-47.58653703 27.11936331 -43.08808049 24.9676875 -38.18637085 22.94448853 C-35.02755776 21.57991548 -32.34508397 19.79127001 -29.4765625 17.890625 C-27.526939 16.67564224 -25.5764422 15.4620595 -23.625 14.25 C-21.65856865 13.02650044 -19.69242127 11.80254434 -17.7265625 10.578125 C-16.7871582 9.99353516 -15.84775391 9.40894531 -14.87988281 8.80664062 C-10.93066283 6.32917133 -7.01114826 3.80606157 -3.09521484 1.27636719 C-1 0 -1 0 0 0 Z " fill="#221EAF" transform="translate(118,43)"/>
<path d="" fill="#221EB0" transform="translate(0,0)"/>
</svg>
